<svg xmlns="http://www.w3.org/2000/svg" viewBox="0 0 48 48"><defs><style>.cls-2{fill:#f6ccaf}.cls-4{fill:#edebf2}.cls-5{fill:#df8761}.cls-7{fill:#f29b75}</style></defs><g id="Farmer_man" data-name="Farmer man"><path d="M30 27.29V31l-1.44 1.69a6 6 0 0 1-9.12 0L18 31v-3.71a8 8 0 0 0 12 0z" style="fill:#edb996"/><path class="cls-2" d="M28.56 32.69a6 6 0 0 1-7.93 1.05L20 33a2.11 2.11 0 0 1 3-1.89 7.51 7.51 0 0 0 3 .89c3.77 0 5.48-2.74 2.56.69z"/><path d="M47 44.08V47H1v-2.92a10 10 0 0 1 6.67-9.43L18 31l1.44 1.69a6 6 0 0 0 9.12 0L30 31l10.33 3.65A10 10 0 0 1 47 44.08z" style="fill:#dad7e5"/><path class="cls-4" d="M10 33.83v5.3A4 4 0 0 0 7 43v2c-4.43 0-3.46-6.36-.32-9.72 1.22-.78.58-.48 3.32-1.45zM28.56 32.69 30 31v8H14v-6.59L18 31l1.44 1.69a6 6 0 0 0 9.12 0zM47 44.08V45H37v-2a4 4 0 0 0-3-3.87v-6.72l6.33 2.24A10 10 0 0 1 47 44.08z"/><path class="cls-5" d="M39 43v4H9v-4a4 4 0 0 1 3-3.87v-6l4-1.41V39h16v-7.29l4 1.41v6A4 4 0 0 1 39 43z"/><path class="cls-2" d="M32 17c0 4.69.48 7.47-2 10.29a8 8 0 0 1-12 0c-2.5-2.84-2-5.61-2-10.29z"/><path d="M32 19c0 3.1.53 7.34-4 9.94a8 8 0 0 1-6.64-2.28c1.7-.66 1.64-.66 1.8-.55 2.71.9 2.61.89 2.84.89a1 1 0 0 0 .89-1.45l-.33-.66a2.49 2.49 0 0 0-3.34-1.12.49.49 0 0 1-.44 0 2.49 2.49 0 0 0-3 .63c-.62-1.3-1.26-3.75-.17-4.81.81-.85.64-.59 12.39-.59z" style="fill:#ffdec7"/><path class="cls-2" d="M34 21h-2v-4h2a2 2 0 0 1 0 4zM14 21h2v-4h-2a2 2 0 0 0-2 2 2 2 0 0 0 2 2z"/><path class="cls-5" d="M38 17H10a4 4 0 0 1 4-4h20a4 4 0 0 1 4 4z"/><path class="cls-7" d="M37.46 15H14.38a1.13 1.13 0 0 1-1.06-1.55c.27-.65-1-.45 20.68-.45a4 4 0 0 1 3.46 2z"/><path class="cls-5" d="M34 11v2H14v-2a10 10 0 0 1 20 0z"/><path class="cls-7" d="M34 11H19.25a2 2 0 0 1-2-2.4 10 10 0 0 1 8.19-7.48A10 10 0 0 1 34 11z"/><path d="M24.16 25.11c-.23-.08-.2 0-2.84.84a1 1 0 0 1-1.21-1.4l.33-.66a2.48 2.48 0 0 1 3.34-1.12.49.49 0 0 0 .44 0 2.48 2.48 0 0 1 3.34 1.12c.3.59.72 1.17.19 1.77s-1.12.27-3.59-.55z" style="fill:#7c7d7d"/><path class="cls-7" d="M36 39.13v-6l-4-1.41V39H16v-7.29l-3 1.06V41a4 4 0 0 0 4 4h22v-2a4 4 0 0 0-3-3.87z"/></g></svg>