# Blender 4.2.1 LTS
# www.blender.org
mtllib untitled.mtl
o garlic
v -0.139218 0.275780 -0.025244
v -0.020828 0.194297 -0.010945
v -0.014129 0.196389 -0.011270
v -0.001829 0.133028 -0.002753
v -0.019735 0.194219 0.012104
v -0.003365 0.132654 -0.002058
v -0.089654 0.264036 -0.019521
v -0.085764 0.269798 -0.019960
v -0.090894 0.268501 -0.002855
v -0.002282 0.132866 -0.001453
v -0.003314 0.132743 -0.003693
v -0.002200 0.133010 -0.004098
v -0.051571 0.242230 -0.001616
v -0.053313 0.242172 0.007772
v -0.056605 0.238403 -0.000345
v -0.053023 0.239309 -0.014099
v -0.047517 0.243637 -0.014483
v 0.139642 0.271758 -0.008566
v 0.017458 0.195386 0.001366
v 0.011038 0.197769 0.002934
v -0.005264 0.134938 -0.002061
v 0.011958 0.195178 -0.021043
v -0.003906 0.134492 -0.003031
v 0.089461 0.262133 -0.004505
v 0.085968 0.268062 -0.003421
v 0.087660 0.266412 -0.021170
v -0.005076 0.134746 -0.003421
v -0.003639 0.134595 -0.001419
v -0.004643 0.134914 -0.000812
v 0.047784 0.241865 -0.014438
v 0.047687 0.241658 -0.023984
v 0.052319 0.237813 -0.016588
v 0.051485 0.238979 -0.002419
v 0.046338 0.243546 -0.001057
v 0.019023 -0.029676 -0.032950
v 0.000000 -0.021800 -0.032325
v -0.019023 -0.029676 -0.032950
v -0.027994 -0.021800 -0.016162
v -0.038047 -0.029676 -0.000000
v -0.027994 -0.021800 0.016162
v -0.019023 -0.029676 0.032950
v 0.000000 -0.021800 0.032325
v 0.019023 -0.029676 0.032950
v 0.028805 -0.021800 0.009433
v 0.038047 -0.029676 -0.000000
v 0.039927 0.012264 -0.023052
v 0.026393 -0.010770 -0.045715
v 0.000000 -0.008191 -0.044847
v -0.027133 0.014916 -0.046995
v -0.038839 -0.008191 -0.022424
v -0.052787 -0.010770 -0.000000
v -0.038839 -0.008191 0.022424
v -0.026393 -0.010770 0.045715
v 0.026393 -0.010770 0.045715
v 0.039650 -0.008191 0.015695
v 0.052787 -0.010770 -0.000000
v 0.027133 0.014916 -0.046995
v 0.000000 0.012264 -0.046104
v -0.039927 0.012264 -0.023052
v -0.054266 0.014916 0.000000
v -0.027133 0.014916 0.046995
v 0.000000 0.012264 0.046104
v 0.027133 0.014916 0.046995
v 0.040738 0.012264 0.016323
v 0.054266 0.014916 0.000000
v 0.000000 0.038737 -0.023576
v -0.013875 0.038737 -0.024032
v -0.013299 0.043798 -0.002708
v -0.027750 0.038737 0.000000
v -0.008932 0.043798 0.008239
v 0.013875 0.038737 0.024032
v 0.027750 0.038737 0.000000
v 0.000000 -0.032302 -0.000000
v 0.005663 0.043798 -0.010273
v -0.006002 0.043798 -0.011964
v 0.002733 0.043798 0.009931
v 0.010030 0.043798 0.000675
v 0.003768 0.099632 -0.007870
v -0.004868 0.099632 -0.009122
v -0.010271 0.099632 -0.002269
v -0.007037 0.099632 0.005836
v 0.001599 0.099632 0.007089
v 0.007002 0.099632 0.000236
v -0.001634 0.095036 -0.001017
v 0.005669 0.275197 -0.141621
v 0.002417 0.194464 -0.021906
v 0.003346 0.196600 -0.015278
v -0.003864 0.133306 -0.001851
v -0.020436 0.194353 -0.018715
v -0.004695 0.132920 -0.003315
v 0.004518 0.263767 -0.091668
v 0.005296 0.269555 -0.087871
v -0.012203 0.268194 -0.091411
v -0.005200 0.133138 -0.002182
v -0.003063 0.133012 -0.003414
v -0.002559 0.133287 -0.002343
v -0.009789 0.242179 -0.051973
v -0.019297 0.242092 -0.052851
v -0.011505 0.238317 -0.056846
v 0.002517 0.239270 -0.054539
v 0.003391 0.243635 -0.049119
v 0.002487 0.064620 -0.003453
v -0.003135 0.063970 -0.005117
v -0.006493 0.064066 -0.000269
v -0.002948 0.064776 0.004391
v 0.002602 0.065118 0.002423
v 0.081445 0.332302 0.007782
v 0.001049 0.148707 -0.000208
v -0.004526 0.148040 0.003765
v -0.009973 0.147176 -0.000345
v -0.007765 0.147309 -0.006857
v -0.000953 0.148255 -0.006773
v -0.002875 0.215057 0.005873
v -0.009761 0.214716 0.007226
v -0.006867 0.157559 -0.001900
v -0.007257 0.214608 -0.016777
v 0.000175 0.158416 -0.006356
v 0.038570 0.304220 0.008377
v 0.033061 0.308292 0.009641
v 0.035748 0.308839 -0.008054
v -0.005488 0.157575 -0.008482
v 0.000966 0.158736 0.001541
v -0.004208 0.158092 0.004297
v 0.007988 0.274175 -0.005175
v 0.008244 0.271186 -0.014704
v 0.013779 0.268780 -0.007322
v 0.012169 0.268398 0.006824
v 0.005639 0.270568 0.008184
vn -0.0223 -0.0835 -0.9963
vn -0.0093 -0.0765 -0.9970
vn 0.7683 0.5636 0.3036
vn 0.8030 0.5761 0.1526
vn -0.6317 -0.3294 0.7018
vn -0.7812 -0.5757 -0.2413
vn 0.0829 -0.1313 -0.9879
vn 0.9205 0.1859 0.3436
vn -0.4174 -0.3077 0.8550
vn -0.9594 -0.2783 -0.0450
vn -0.2935 -0.1938 -0.9361
vn -0.0124 -0.1147 -0.9933
vn 0.9527 0.1494 -0.2645
vn 0.4121 0.5838 -0.6996
vn -0.4323 -0.4263 0.7946
vn -0.0672 -0.6518 -0.7554
vn 0.0437 -0.1432 -0.9887
vn 0.0657 -0.1199 -0.9906
vn -0.0239 0.5331 0.8457
vn 0.5500 0.8283 0.1072
vn 0.5212 0.8150 0.2533
vn 0.7657 0.3544 -0.5367
vn 0.4741 0.2071 0.8558
vn -0.7260 -0.4624 0.5091
vn -0.5664 -0.2726 -0.7777
vn -0.5293 -0.8263 -0.1923
vn -0.5830 -0.6205 0.5245
vn 0.2096 -0.0767 0.9748
vn 0.1974 -0.0692 0.9779
vn -0.6207 0.2208 -0.7523
vn -0.6332 0.3914 0.6677
vn 0.5951 -0.4974 -0.6313
vn 0.7887 -0.6072 0.0964
vn 0.1029 -0.1200 0.9874
vn -0.9609 0.2231 -0.1639
vn 0.2325 -0.3321 -0.9141
vn 0.9380 -0.3193 -0.1352
vn 0.4595 -0.1991 0.8656
vn 0.1981 -0.1075 0.9743
vn -0.8773 0.1927 0.4396
vn -0.5258 0.8505 -0.0131
vn 0.2539 -0.4508 -0.8558
vn 0.1841 -0.6483 0.7388
vn 0.1411 -0.1335 0.9809
vn 0.1208 -0.1093 0.9866
vn -0.5261 0.8349 -0.1617
vn -0.1170 0.5250 -0.8430
vn -0.2457 0.6065 0.7561
vn 0.4454 -0.6492 -0.6165
vn 0.5220 -0.8470 0.1005
vn 0.6935 -0.2909 0.6591
vn 0.4711 -0.3619 -0.8044
vn -0.7884 0.5940 -0.1598
vn -0.7930 0.6092 -0.0052
vn 0.8997 -0.4231 -0.1072
vn -0.2913 -0.6478 -0.7039
vn -0.0800 -0.5362 -0.8403
vn 0.2913 -0.6478 -0.7039
vn -0.2063 -0.3279 -0.9219
vn -0.7553 -0.6478 -0.0997
vn -0.6953 -0.3279 -0.6396
vn -0.4640 -0.6478 -0.6043
vn -0.6877 -0.5362 -0.4894
vn -0.4640 -0.6478 0.6043
vn -0.6877 -0.5362 0.4894
vn -0.7553 -0.6478 0.0997
vn -0.7677 -0.5362 0.3509
vn 0.2275 -0.4824 0.8459
vn -0.2275 -0.4824 0.8459
vn 0.7559 -0.6473 0.0976
vn 0.7977 -0.5187 0.3077
vn 0.2858 -0.5791 0.7635
vn 0.6275 -0.4893 0.6057
vn 0.8263 -0.2993 -0.4771
vn 0.5427 -0.4231 -0.7256
vn 0.8787 -0.0490 -0.4749
vn -0.0388 -0.0613 -0.9974
vn -0.0280 -0.0490 -0.9984
vn 0.0268 -0.0613 -0.9978
vn -0.8775 -0.0613 -0.4757
vn -0.8444 -0.0613 -0.5323
vn -0.8506 -0.0490 -0.5235
vn -0.8456 -0.0487 0.5316
vn -0.8832 -0.0487 0.4665
vn 0.2992 -0.3578 0.8846
vn 0.0280 -0.0490 0.9984
vn -0.2992 -0.3578 0.8846
vn -0.0280 -0.0490 0.9984
vn 0.9150 -0.0609 0.3988
vn 0.9116 -0.0466 0.4084
vn 0.7605 -0.0603 0.6465
vn 0.7727 -0.0445 0.6332
vn 0.8506 -0.0490 -0.5235
vn 0.5433 0.8154 -0.2000
vn -0.0880 0.6456 -0.7586
vn 0.0894 0.6650 -0.7415
vn 0.0250 0.6479 -0.7613
vn -0.6868 0.6650 -0.2933
vn -0.7079 0.6913 -0.1449
vn -0.5974 0.6650 -0.4481
vn -0.3608 0.7013 -0.6148
vn -0.4223 0.4701 0.7750
vn -0.4570 0.4691 0.7557
vn -0.8712 0.4889 -0.0448
vn 0.0963 0.7759 0.6235
vn -0.0894 0.6650 0.7415
vn -0.2962 0.6984 0.6515
vn 0.7146 0.6491 0.2608
vn 0.6984 0.5913 0.4032
vn 0.5540 0.6167 0.5593
vn 0.5974 0.6650 -0.4481
vn 0.4667 0.6931 -0.5494
vn -0.3745 -0.8818 -0.2865
vn 0.3745 -0.8818 -0.2865
vn -0.4354 -0.8818 0.1811
vn -0.0609 -0.8818 -0.4676
vn -0.0609 -0.8818 0.4676
vn -0.4354 -0.8818 -0.1811
vn 0.3745 -0.8818 0.2865
vn -0.3745 -0.8818 0.2865
vn 0.3810 -0.9128 -0.1472
vn 0.0512 -0.7414 0.6691
vn 0.0688 -0.9968 -0.0397
vn 0.0544 0.9254 -0.3752
vn 0.0129 0.9191 -0.3939
vn -0.2729 0.9377 -0.2152
vn -0.3075 0.9436 0.1227
vn -0.0544 0.9254 0.3751
vn 0.2767 0.9476 0.1598
vn 0.2184 0.9606 0.1722
vn 0.3988 0.7877 -0.4694
vn 0.2692 0.9571 -0.1074
vn 0.1434 0.0474 -0.9885
vn -0.7844 0.0474 -0.6184
vn -0.9278 0.0474 0.3701
vn -0.1434 0.0474 0.9885
vn 0.7844 0.0474 0.6184
vn 0.9278 0.0474 -0.3701
vn -0.0746 0.8544 0.5142
vn 0.4081 0.8544 0.3217
vn 0.4826 0.8544 -0.1925
vn 0.0746 0.8544 -0.5142
vn -0.4081 0.8544 -0.3217
vn -0.4826 0.8544 0.1925
vn 0.9903 -0.0819 -0.1125
vn 0.9922 -0.0748 -0.0997
vn -0.2336 0.5680 0.7892
vn -0.0801 0.5811 0.8099
vn -0.5721 -0.4680 -0.6736
vn 0.1705 -0.5804 -0.7963
vn 0.9916 -0.1290 -0.0067
vn -0.2587 0.1913 0.9468
vn -0.8888 -0.3119 -0.3357
vn -0.0421 -0.2845 -0.9578
vn 0.9059 -0.1940 -0.3764
vn 0.9883 -0.1131 -0.1022
vn 0.3499 0.1561 0.9237
vn 0.7328 0.5877 0.3428
vn -0.5740 -0.6252 -0.5288
vn 0.1451 -0.8294 -0.5394
vn 0.9889 -0.1412 -0.0458
vn 0.9928 -0.1177 -0.0242
vn -0.8456 0.5314 0.0499
vn -0.0586 0.8317 0.5522
vn -0.2066 0.8179 0.5369
vn -0.8297 -0.4305 -0.3554
vn 0.7476 -0.6509 -0.1317
vn 0.7235 -0.2749 -0.6333
vn -0.7557 -0.3347 -0.5629
vn 0.6035 0.3603 0.7113
vn -0.8094 0.2086 0.5489
vn 0.2843 -0.0042 -0.9587
vn 0.0178 -0.0389 -0.9991
vn -0.8212 -0.0575 -0.5678
vn -0.9460 -0.0399 -0.3216
vn -0.7930 -0.0327 0.6083
vn -0.6017 -0.0054 0.7987
vn 0.3334 0.0134 0.9427
vn 0.5770 0.0364 0.8159
vn 0.9989 0.0402 -0.0231
vn 0.9563 0.0086 -0.2922
vn 0.5841 -0.0613 0.8094
vn 0.4791 -0.1470 0.8654
vn -0.6051 0.2920 0.7406
vn -0.9192 0.0083 0.3937
vn -0.9231 0.2300 -0.3083
vn -0.9626 0.1816 -0.2012
vn 0.0350 -0.1638 -0.9859
vn 0.3515 -0.0006 -0.9362
vn 0.9541 -0.0942 -0.2844
vn 0.9946 0.0258 -0.1007
vn 0.1957 -0.0707 0.9781
vn 0.1815 -0.0687 0.9810
vn -0.9591 0.2661 -0.0968
vn -0.9577 0.2664 -0.1093
vn 0.7798 -0.1015 -0.6177
vn 0.9867 -0.1207 0.1091
vn 0.1131 -0.1518 0.9819
vn -0.9770 -0.0601 -0.2048
vn 0.3647 -0.1229 -0.9230
vn 0.9919 0.0755 -0.1024
vn 0.4732 -0.0354 0.8803
vn 0.1942 -0.0317 0.9804
vn -0.9100 -0.1099 0.3999
vn -0.7717 0.6006 -0.2091
vn 0.4297 -0.2515 -0.8673
vn 0.3955 -0.5889 0.7049
vn 0.1537 -0.1495 0.9767
vn 0.1256 -0.1352 0.9828
vn -0.3075 0.5600 -0.7693
vn 0.8012 -0.5937 0.0752
vn 0.6754 -0.3819 -0.6308
vn -0.4910 0.4549 0.7429
vn -0.8091 0.5875 0.0163
vn 0.5017 -0.1567 0.8507
vn 0.4774 -0.0988 -0.8731
vn -0.8596 0.1234 0.4958
vn -0.7237 0.0729 -0.6862
vt 0.655160 0.836174
vt 0.655374 0.836417
vt 0.654359 0.840517
vt 0.654850 0.840535
vt 0.653510 0.840000
vt 0.653991 0.836271
vt 0.652768 0.839777
vt 0.655246 0.832130
vt 0.651998 0.839612
vt 0.655941 0.840681
vt 0.653716 0.842087
vt 0.653931 0.842216
vt 0.652605 0.844381
vt 0.655371 0.832164
vt 0.655514 0.832184
vt 0.655772 0.832198
vt 0.655935 0.832181
vt 0.655649 0.832200
vt 0.652700 0.841848
vt 0.654850 0.840536
vt 0.651998 0.839612
vt 0.652768 0.839776
vt 0.655941 0.840682
vt 0.653716 0.842087
vt 0.653931 0.842216
vt 0.652605 0.844381
vt 0.655372 0.832164
vt 0.655246 0.832130
vt 0.655649 0.832200
vt 0.652700 0.841848
vt 0.144764 0.052733
vt 0.146299 0.053100
vt 0.145717 0.055489
vt 0.151296 0.053627
vt 0.150140 0.054998
vt 0.149420 0.050979
vt 0.152251 0.055380
vt 0.149710 0.056849
vt 0.152535 0.057004
vt 0.151426 0.057360
vt 0.152957 0.058370
vt 0.151709 0.058632
vt 0.152945 0.059701
vt 0.151789 0.060003
vt 0.142548 0.059271
vt 0.142431 0.058552
vt 0.143196 0.059339
vt 0.143088 0.058600
vt 0.142601 0.057797
vt 0.142570 0.056904
vt 0.143315 0.057153
vt 0.143007 0.055711
vt 0.143739 0.056175
vt 0.143387 0.054745
vt 0.144181 0.055581
vt 0.146975 0.055131
vt 0.148827 0.055923
vt 0.150377 0.057787
vt 0.150736 0.058784
vt 0.143580 0.058570
vt 0.143701 0.058003
vt 0.143894 0.057413
vt 0.144377 0.056637
vt 0.144825 0.056125
vt 0.147606 0.057583
vt 0.148382 0.057932
vt 0.148333 0.059209
vt 0.149195 0.059223
vt 0.148499 0.060050
vt 0.144956 0.058817
vt 0.144759 0.057917
vt 0.145513 0.057287
vt 0.147397 0.053466
vt 0.148313 0.052977
vt 0.148312 0.055047
vt 0.146550 0.054033
vt 0.146510 0.055050
vt 0.146569 0.056057
vt 0.147418 0.056601
vt 0.148314 0.057061
vt 0.149215 0.056606
vt 0.150075 0.056060
vt 0.150013 0.054737
vt 0.150074 0.053957
vt 0.147693 0.058576
vt 0.146718 0.058069
vt 0.145176 0.058450
vt 0.145807 0.058146
vt 0.147518 0.052558
vt 0.147585 0.051946
vt 0.150429 0.052798
vt 0.150479 0.052345
vt 0.147686 0.051339
vt 0.150554 0.051895
vt 0.147588 0.055025
vt 0.147518 0.054404
vt 0.150485 0.054610
vt 0.150433 0.054156
vt 0.147484 0.053789
vt 0.150406 0.053701
vt 0.147484 0.053173
vt 0.150405 0.053253
vt 0.150771 0.053064
vt 0.151117 0.053273
vt 0.150765 0.053476
vt 0.151118 0.053676
vt 0.150773 0.053888
vt 0.653991 0.836271
vt 0.652769 0.839776
vt 0.652605 0.844381
vt 0.655514 0.832184
vt 0.655772 0.832198
vt 0.652700 0.841848
vt 0.655682 0.836233
vt 0.655672 0.840534
vt 0.655379 0.836247
vt 0.655319 0.840563
vt 0.655986 0.836243
vt 0.656027 0.840529
vt 0.656289 0.836270
vt 0.656380 0.840558
vt 0.654772 0.836233
vt 0.655074 0.836257
vt 0.654614 0.840521
vt 0.654965 0.840565
vt 0.655282 0.835714
vt 0.655971 0.835949
vt 0.655035 0.836757
vt 0.655181 0.837045
vt 0.658877 0.839469
vt 0.657569 0.840579
vt 0.655896 0.838765
vt 0.655886 0.839257
vt 0.659512 0.837357
vt 0.655539 0.838116
vt 0.657200 0.836198
vt 0.655377 0.837555
vt 0.652635 0.837367
vt 0.652701 0.837669
vt 0.650321 0.838438
vt 0.650419 0.838682
vt 0.650679 0.840096
vt 0.653537 0.840047
vt 0.650920 0.840580
vt 0.653205 0.838948
vt 0.650692 0.839624
vt 0.650593 0.839232
vt 0.649187 0.839156
vt 0.649261 0.839337
vt 0.648076 0.840154
vt 0.649519 0.839906
vt 0.649499 0.840536
s 1
usemtl lambert18.008
f 3/1/1 2/2/1 17/3/1
f 17/3/2 2/2/2 16/4/2
f 13/5/3 3/1/3 17/3/3
f 5/6/4 13/5/4 14/7/4
f 6/8/5 5/6/5 15/9/5
f 2/2/6 15/10/6 16/4/6
f 8/11/7 7/12/7 1/13/7
f 10/14/8 4/15/8 5/6/8
f 6/8/9 10/14/9 5/6/9
f 11/16/10 6/17/10 2/2/10
f 11/16/11 2/2/11 12/18/11
f 12/18/12 2/2/12 3/1/12
f 4/15/13 12/18/13 3/1/13
f 9/19/14 13/5/14 1/13/14
f 15/9/15 9/19/15 1/13/15
f 7/12/16 15/10/16 1/13/16
f 17/3/17 16/4/17 8/11/17
f 8/11/18 16/4/18 7/12/18
f 1/13/19 13/5/19 8/11/19
f 14/7/20 13/5/20 9/19/20
f 8/11/21 13/5/21 17/3/21
f 5/6/22 4/15/22 13/5/22
f 4/15/23 3/1/23 13/5/23
f 15/9/24 5/6/24 14/7/24
f 2/2/25 6/17/25 15/10/25
f 16/4/26 15/10/26 7/12/26
f 15/9/27 14/7/27 9/19/27
f 20/1/28 19/2/28 34/3/28
f 34/3/29 19/2/29 33/20/29
f 21/15/30 20/1/30 30/5/30
f 22/6/31 21/15/31 30/5/31
f 32/21/32 22/6/32 31/22/32
f 19/2/33 32/23/33 33/20/33
f 25/24/34 24/25/34 18/26/34
f 27/27/35 21/15/35 22/6/35
f 23/28/36 27/27/36 22/6/36
f 28/16/37 23/17/37 19/2/37
f 28/16/38 19/2/38 29/29/38
f 29/29/39 19/2/39 20/1/39
f 21/15/40 29/29/40 20/1/40
f 31/22/41 30/5/41 26/30/41
f 32/21/42 26/30/42 18/26/42
f 24/25/43 32/23/43 18/26/43
f 34/3/44 33/20/44 25/24/44
f 25/24/45 33/20/45 24/25/45
f 25/24/46 30/5/46 34/3/46
f 18/26/47 30/5/47 25/24/47
f 26/30/48 30/5/48 18/26/48
f 32/21/49 31/22/49 26/30/49
f 33/20/50 32/23/50 24/25/50
f 19/2/51 23/17/51 32/23/51
f 23/28/52 22/6/52 32/21/52
f 30/5/53 20/1/53 34/3/53
f 22/6/54 30/5/54 31/22/54
f 35/31/55 47/32/55 46/33/55
f 36/34/56 48/35/56 35/36/56
f 35/36/57 48/35/57 47/32/57
f 36/34/58 37/37/58 48/35/58
f 48/35/59 37/37/59 49/38/59
f 38/39/60 50/40/60 37/37/60
f 37/37/61 50/40/61 49/38/61
f 38/39/62 39/41/62 50/40/62
f 50/40/63 39/41/63 51/42/63
f 40/43/64 52/44/64 39/41/64
f 39/41/65 52/44/65 51/42/65
f 40/45/66 41/46/66 52/47/66
f 52/47/67 41/46/67 53/48/67
f 41/46/68 42/49/68 53/48/68
f 42/49/69 43/50/69 54/51/69
f 44/52/70 55/53/70 43/50/70
f 43/50/71 55/53/71 54/51/71
f 44/52/72 45/54/72 55/53/72
f 55/53/73 45/54/73 56/55/73
f 35/31/74 46/33/74 45/54/74
f 45/54/75 46/33/75 56/55/75
f 46/33/76 47/32/76 57/56/76
f 48/35/77 58/57/77 47/32/77
f 47/32/78 58/57/78 57/56/78
f 48/35/79 49/38/79 58/57/79
f 49/38/80 50/40/80 59/58/80
f 50/40/81 51/42/81 59/58/81
f 59/58/82 51/42/82 60/59/82
f 51/42/83 52/44/83 60/59/83
f 52/47/84 53/48/84 61/60/84
f 42/49/85 62/61/85 53/48/85
f 53/48/86 62/61/86 61/60/86
f 42/49/87 54/51/87 62/61/87
f 62/61/88 54/51/88 63/62/88
f 55/53/89 64/63/89 54/51/89
f 54/51/90 64/63/90 63/62/90
f 55/53/91 56/55/91 64/63/91
f 64/63/92 56/55/92 65/64/92
f 56/55/93 46/33/93 65/64/93
f 46/33/94 57/56/94 66/65/94
f 57/56/95 58/57/95 66/65/95
f 49/38/96 67/66/96 58/57/96
f 58/57/97 67/66/97 66/65/97
f 49/38/98 59/58/98 67/66/98
f 67/66/99 59/58/99 68/67/99
f 60/59/100 69/68/100 59/58/100
f 59/58/101 69/68/101 68/67/101
f 60/59/102 52/44/102 69/68/102
f 69/68/103 52/44/103 70/69/103
f 52/47/104 61/60/104 70/70/104
f 61/60/105 62/61/105 70/70/105
f 63/62/106 71/71/106 62/61/106
f 62/61/107 71/71/107 70/70/107
f 63/62/108 64/63/108 71/71/108
f 71/71/109 64/63/109 72/72/109
f 64/63/110 65/64/110 72/72/110
f 65/64/111 46/33/111 72/72/111
f 72/72/112 46/33/112 66/65/112
f 36/73/113 35/74/113 73/75/113
f 37/76/114 36/73/114 73/75/114
f 38/77/115 37/76/115 73/75/115
f 39/78/116 38/77/116 73/75/116
f 40/79/117 39/78/117 73/75/117
f 41/80/118 40/79/118 73/75/118
f 42/81/119 41/80/119 73/75/119
f 43/82/120 42/81/120 73/75/120
f 44/83/121 43/82/121 73/75/121
f 45/84/122 44/83/122 73/75/122
f 35/74/123 45/84/123 73/75/123
f 66/65/124 75/85/124 74/86/124
f 66/65/125 67/66/125 75/85/125
f 67/66/126 68/67/126 75/85/126
f 69/68/127 70/69/127 68/67/127
f 70/70/128 71/71/128 76/87/128
f 72/72/129 77/88/129 71/71/129
f 71/71/130 77/88/130 76/87/130
f 66/65/131 74/86/131 72/72/131
f 72/72/132 74/86/132 77/88/132
f 74/89/133 75/90/133 78/91/133
f 78/91/133 75/90/133 79/92/133
f 75/90/134 68/93/134 79/92/134
f 79/92/134 68/93/134 80/94/134
f 68/95/135 70/96/135 80/97/135
f 80/97/135 70/96/135 81/98/135
f 70/96/136 76/99/136 81/98/136
f 81/98/136 76/99/136 82/100/136
f 76/99/137 77/101/137 82/100/137
f 82/100/137 77/101/137 83/102/137
f 77/101/138 74/89/138 83/102/138
f 83/102/138 74/89/138 78/91/138
f 78/103/139 79/104/139 84/105/139
f 79/104/140 80/106/140 84/105/140
f 80/106/141 81/107/141 84/105/141
f 81/107/142 82/100/142 84/105/142
f 82/100/143 83/102/143 84/105/143
f 83/102/144 78/103/144 84/105/144
f 87/1/145 86/2/145 101/3/145
f 101/3/146 86/2/146 100/20/146
f 97/5/147 87/1/147 101/3/147
f 89/108/148 97/5/148 98/109/148
f 99/9/149 89/108/149 98/109/149
f 86/2/150 99/10/150 100/20/150
f 92/24/151 91/25/151 85/110/151
f 94/27/152 88/111/152 89/108/152
f 90/28/153 94/27/153 89/108/153
f 95/112/154 90/17/154 86/2/154
f 95/112/155 86/2/155 96/18/155
f 96/18/156 86/2/156 87/1/156
f 88/111/157 96/18/157 87/1/157
f 93/113/158 97/5/158 85/110/158
f 99/9/159 98/109/159 93/113/159
f 100/20/160 99/10/160 91/25/160
f 101/3/161 100/20/161 92/24/161
f 92/24/162 100/20/162 91/25/162
f 85/110/163 97/5/163 92/24/163
f 98/109/164 97/5/164 93/113/164
f 92/24/165 97/5/165 101/3/165
f 99/9/166 93/113/166 85/110/166
f 91/25/167 99/10/167 85/110/167
f 86/2/168 90/17/168 99/10/168
f 90/28/169 89/108/169 99/9/169
f 89/108/170 88/111/170 97/5/170
f 88/111/171 87/1/171 97/5/171
f 103/114/172 111/115/172 102/116/172
f 102/116/173 111/115/173 112/117/173
f 103/114/174 104/118/174 111/115/174
f 111/115/175 104/118/175 110/119/175
f 104/118/176 105/120/176 110/119/176
f 110/119/177 105/120/177 109/121/177
f 105/122/178 106/123/178 109/124/178
f 109/124/179 106/123/179 108/125/179
f 102/116/180 112/117/180 106/123/180
f 106/123/181 112/117/181 108/125/181
f 109/126/182 108/127/182 123/128/182
f 123/128/183 108/127/183 122/129/183
f 110/130/184 109/131/184 115/132/184
f 115/132/185 109/131/185 123/133/185
f 110/130/186 115/132/186 111/134/186
f 111/134/187 115/132/187 121/135/187
f 111/134/188 121/135/188 112/136/188
f 112/136/189 121/135/189 117/137/189
f 112/136/190 117/137/190 108/127/190
f 108/127/191 117/137/191 122/129/191
f 114/138/192 113/139/192 128/140/192
f 128/140/193 113/139/193 127/141/193
f 124/142/194 114/143/194 128/144/194
f 116/145/195 124/142/195 125/146/195
f 117/137/196 125/146/196 126/147/196
f 127/141/197 117/137/197 126/147/197
f 119/148/198 118/149/198 107/150/198
f 121/135/199 115/132/199 116/145/199
f 117/137/200 121/135/200 116/145/200
f 122/129/201 117/137/201 113/139/201
f 122/129/202 113/139/202 123/128/202
f 123/128/203 113/139/203 114/138/203
f 115/132/204 123/133/204 114/143/204
f 125/146/205 124/142/205 120/151/205
f 126/147/206 120/151/206 107/150/206
f 118/149/207 126/147/207 107/150/207
f 128/140/208 127/141/208 119/148/208
f 119/148/209 127/141/209 118/149/209
f 107/150/210 124/142/210 119/152/210
f 127/141/211 126/147/211 118/149/211
f 126/147/212 125/146/212 120/151/212
f 120/151/213 124/142/213 107/150/213
f 119/152/214 124/142/214 128/144/214
f 113/139/215 117/137/215 127/141/215
f 117/137/216 116/145/216 125/146/216
f 116/145/217 115/132/217 124/142/217
f 115/132/218 114/143/218 124/142/218
